<svg xmlns="http://www.w3.org/2000/svg" width="1201" height="1200" viewBox="0 0 1201 1200" fill="none" role="img">
  <g clip-path="url(#clip0_1602_83-2)">
    <path fill-rule="evenodd" clip-rule="evenodd" d="M743.919 670.145C721.208 679.426 706.7 714.981 691.982 733.145C684.435 742.449 675.435 743.902 663.834 739.238C578.592 705.278 513.248 648.395 466.21 569.95C458.241 557.786 459.671 548.177 469.28 536.88C483.483 520.146 501.342 501.138 505.186 478.591C513.717 428.717 448.514 274.006 362.405 344.108C114.625 546.021 775.747 1081.54 895.067 791.902C928.816 709.801 781.559 654.723 743.919 670.145ZM600.67 1095.18C513.037 1095.18 426.811 1071.89 351.32 1027.78C339.202 1020.67 324.554 1018.8 311.007 1022.48L146.969 1067.5L204.109 941.62C211.891 924.487 209.898 904.542 198.906 889.308C137.782 804.582 105.461 704.551 105.461 599.997C105.461 326.928 327.601 104.789 600.67 104.789C873.739 104.789 1095.85 326.928 1095.85 599.997C1095.85 873.042 873.715 1095.18 600.67 1095.18ZM600.67 0C269.828 0 0.67296 269.155 0.67296 599.997C0.67296 716.387 33.7197 828.16 96.5084 925.167L5.36043 1125.91C-3.05358 1144.45 0.0167141 1166.15 13.1885 1181.6C23.3135 1193.43 37.9618 1199.99 53.0789 1199.99C86.8756 1199.99 271.164 1142.08 318.062 1129.21C404.757 1175.6 501.998 1199.99 600.67 1199.99C931.488 1199.99 1200.67 930.815 1200.67 599.997C1200.67 269.155 931.488 0 600.67 0Z" fill="white"></path>
  </g>
  <defs>
    <clipPath id="clip0_1602_83-2">
      <rect width="1200" height="1200" fill="white" transform="translate(0.666687)"></rect>
    </clipPath>
  </defs>
</svg>